<?xml version="1.0" encoding="utf-8"?>
<!-- Generator: Adobe Illustrator 19.0.0, SVG Export Plug-In . SVG Version: 6.00 Build 0)  -->
<svg version="1.1" id="图层_1" xmlns="http://www.w3.org/2000/svg" xmlns:xlink="http://www.w3.org/1999/xlink" x="0px" y="0px"
	 viewBox="0 0 272.1 93.5" style="enable-background:new 0 0 272.1 93.5;" xml:space="preserve">
<style type="text/css">
	.st0{fill:#FFFFFF;}
	.st1{fill-rule:evenodd;clip-rule:evenodd;fill:#E6001F;}
</style>
<g id="XMLID_2_">
	<path id="XMLID_16_" class="st0" d="M67.6,37.7h14v32.3c0.1,2.6-1.4,4.3-4.4,4.4H1.3l30.3-41.4l0.7-0.9l-1.1,0H1.6l9.5-13h48.7
		l-30,41.8h37.3c0.3,0,0.5-0.2,0.5-0.5V37.7z"/>
	<path id="XMLID_15_" class="st1" d="M77.5,34.7c8.3-3,10.8-16.8,1.4-24.9c-0.4,2.6-1.3,4.8-1.3,4.8s-2.7-9.7-11-11.5
		c2.1,3,1.7,7.4,1.7,7.4c-0.4,4.7-3.9,8.7-3.9,13.2C64.1,30.2,71,34.6,71,34.6v-3.1c0-2.6,1.5-4.8,3.2-4.8c1.8,0,3.2,2.1,3.2,4.8
		V34.7z"/>
	<path id="XMLID_12_" class="st0" d="M70.8,34.9c0,0-6.9-4.3-6.9-11c0-0.1,0-0.2,0-0.3c0-4.7,3.6-8.7,3.9-13.2c0,0,0-0.3,0-0.9
		c0-1.4-0.2-4.2-1.7-6.2l-0.6-0.9l1.1,0.2c6.8,1.5,9.9,8,11,10.7c0.3-0.9,0.7-2.2,0.9-3.6L78.5,9l0.6,0.5c4.3,3.7,6.2,8.5,6.2,13.1
		c0,5.6-2.9,10.8-7.7,12.5l-0.1-0.4l0.1,0.4l-0.6,0.2v-3.7c0-2.5-1.4-4.3-2.8-4.3c-1.4,0-2.8,1.8-2.8,4.3v3.8L70.8,34.9z M77.9,31.5
		V34c4-1.8,6.5-6.4,6.5-11.5c0-4.1-1.6-8.5-5.3-11.9c-0.4,2.3-1.2,4.2-1.2,4.2L77.5,16l-0.3-1.2c0,0-0.7-2.4-2.3-5
		c-1.5-2.4-3.9-4.9-7.4-6c1.1,2.1,1.2,4.5,1.3,5.8c0,0.6,0,1,0,1c-0.4,4.9-4,8.9-3.9,13.2c0,0.1,0,0.2,0,0.3c0,3,1.6,5.6,3.2,7.4
		c1,1.1,2,1.9,2.6,2.4v-2.2c0-2.8,1.5-5.2,3.7-5.2C76.4,26.4,77.9,28.8,77.9,31.5"/>
	<path id="XMLID_7_" class="st0" d="M266.9,28.8c2.2,0,4-1.8,4-4c0-2.2-1.7-4-4-4c-2.2,0-3.9,1.8-3.9,4
		C262.9,27,264.6,28.8,266.9,28.8 M266.9,21.7c1.7,0,3.1,1.3,3.1,3.1c0,1.8-1.4,3.1-3.1,3.1c-1.7,0-3.1-1.3-3.1-3.1
		C263.8,23,265.1,21.7,266.9,21.7 M267.7,25.2c0.7,0,1.1-0.5,1.1-1.2c0-1.1-0.7-1.3-1.6-1.3h-2v4.1h0.9v-1.6h0.7l1,1.6h0.9
		L267.7,25.2z M266.1,24.5v-1h1c0.4,0,1,0,1,0.4c0,0.4-0.3,0.5-0.7,0.5H266.1z"/>
	<path id="XMLID_6_" class="st0" d="M108.3,72.9c3.3,1.4,7,2.6,10.8,2.6c15.9,0,28.9-13.2,28.9-28.8C148,31.2,135,18,119.1,18
		c-5.6,0-10.9,2.2-15.3,4.9v-3.6H89.6v73.2h14V46.1c-0.1-7.7,6.6-14.2,15.1-14.2c8.5,0,15.4,6.7,15.4,14.9c0,8.2-6.9,14.9-15.4,14.9
		c-4,0-7.7-1.5-10.4-4L108.3,72.9z"/>
	<path id="XMLID_3_" class="st0" d="M235.2,18c-12.1,0-22.4,7.8-26.7,18.1C204.2,25.8,193.8,18,181.8,18c-5.6,0-10.9,2.1-15.3,4.9
		v-3.6h-14.2v73.2h14V46.1c-0.1-7.7,6.6-14.2,15.1-14.2c8.5,0,15.4,6.7,15.4,14.9c0,8.2-6.9,14.9-15.4,14.9c-4,0-7.6-1.5-10.4-3.9
		l0,15.2c3.3,1.4,7,2.6,10.8,2.6c12.1,0,22.4-7.8,26.7-18.1c0,0,0-0.1-0.1-0.1l0.1,0.1c0,0,0,0,0,0c4.3,10.3,14.6,18.1,26.7,18.1
		c15.9,0,28.9-13.2,28.9-28.8C264.1,31.2,251.2,18,235.2,18 M235.2,62.5c-8.7,0-15.8-7.1-15.8-15.8c0-8.7,7.1-15.8,15.8-15.8
		c8.7,0,15.8,7.1,15.8,15.8C251,55.5,244,62.5,235.2,62.5"/>
</g>
</svg>
