<?xml version="1.0" encoding="utf-8"?>
<!-- Generator: Adobe Illustrator 19.0.0, SVG Export Plug-In . SVG Version: 6.00 Build 0)  -->
<svg version="1.1" id="图层_1" xmlns="http://www.w3.org/2000/svg" xmlns:xlink="http://www.w3.org/1999/xlink" x="0px" y="0px"
	 viewBox="0 0 269.3 90.7" style="enable-background:new 0 0 269.3 90.7;" xml:space="preserve">
<style type="text/css">
	.st0{fill-rule:evenodd;clip-rule:evenodd;}
	.st1{fill-rule:evenodd;clip-rule:evenodd;fill:#E6001F;}
</style>
<g id="XMLID_2_">
	<path id="XMLID_13_" class="st0" d="M66.6,36.3h13.9v32.2c0.1,2.6-1.3,4.3-4.4,4.4H0.5l30.2-41.2l0.7-0.9l-1.1,0H0.8l9.4-12.9h48.6
		L28.9,59.6h37.1c0.3,0,0.5-0.2,0.5-0.5V36.3"/>
	<path id="XMLID_12_" class="st1" d="M76.4,33.3c8.2-3,10.7-16.8,1.3-24.8c-0.4,2.6-1.3,4.8-1.3,4.8s-2.7-9.7-11-11.5
		c2.1,3,1.7,7.4,1.7,7.4c-0.4,4.7-3.9,8.7-3.9,13.1C63.1,28.9,70,33.2,70,33.2v-3.1c0-2.6,1.4-4.8,3.2-4.8c1.8,0,3.2,2.1,3.2,4.8
		V33.3"/>
	<path id="XMLID_7_" class="st0" d="M264.3,23.1v-1h0.9c0.4,0,0.9,0,0.9,0.4c0,0.4-0.3,0.5-0.7,0.5H264.3 M266,23.9
		c0.7,0,1.1-0.5,1.1-1.2c0-1.1-0.7-1.2-1.6-1.2h-2v4.1h0.9v-1.6h0.7l1,1.6h0.9L266,23.9z M265.1,20.4c1.7,0,3.1,1.3,3.1,3.1
		c0,1.8-1.4,3.1-3.1,3.1c-1.7,0-3.1-1.3-3.1-3.1C262,21.7,263.4,20.4,265.1,20.4 M265.1,27.4c2.2,0,3.9-1.7,3.9-3.9
		c0-2.2-1.7-3.9-3.9-3.9c-2.2,0-3.9,1.7-3.9,3.9C261.2,25.7,262.9,27.4,265.1,27.4"/>
	<path id="XMLID_6_" class="st0" d="M107.1,71.4c3.3,1.4,7,2.6,10.8,2.6c15.9,0,28.8-13.2,28.8-28.7c0-15.5-12.9-28.7-28.8-28.7
		c-5.6,0-10.9,2.1-15.3,4.9v-3.6H88.5v72.9h13.9V44.6c-0.1-7.7,6.6-14.1,15.1-14.1c8.5,0,15.3,6.6,15.3,14.8
		c0,8.2-6.9,14.8-15.3,14.8c-4,0-7.7-1.5-10.4-3.9L107.1,71.4"/>
	<path id="XMLID_3_" class="st0" d="M233.6,61.1c-8.7,0-15.7-7-15.7-15.7c0-8.7,7-15.7,15.7-15.7c8.7,0,15.7,7,15.7,15.7
		C249.3,54,242.3,61.1,233.6,61.1 M233.6,16.6c-12,0-22.3,7.8-26.6,18c-4.3-10.2-14.6-18-26.6-18c-5.6,0-10.9,2.1-15.3,4.9v-3.6H151
		v72.9h13.9V44.6c-0.1-7.7,6.6-14.1,15.1-14.1c8.5,0,15.3,6.6,15.3,14.8c0,8.2-6.9,14.8-15.3,14.8c-4,0-7.6-1.5-10.3-3.9l0,15.1
		c3.3,1.4,7,2.6,10.8,2.6c12,0,22.3-7.8,26.6-18c0,0,0-0.1-0.1-0.1l0.1,0.1c0,0,0,0,0,0c4.3,10.3,14.6,18,26.6,18
		c15.9,0,28.8-13.2,28.8-28.7C262.4,29.8,249.5,16.6,233.6,16.6"/>
</g>
</svg>
